# xmcd
# 
# Track frame offsets:
#     150
#     13548
#     32866
#     48897
#     68169
#     84364
#     97378
#     112760
#     129245
#     144679
#     162022
#     174019
#     188984
# 
# Disc length: 2814
# 
# Revision: 1
# Processed by: cddbd v1.5.2PL0 Copyright (c) Steve Scherf et al.
# Submitted via: fre:ac v1.0.17
# 
DISCID=9f0afc0d
DTITLE=Deryl Dodd - Random As I Am
DYEAR=2011
DGENRE=Country
TTITLE0=Baby Where's My Bottle
TTITLE1=Loveletters
TTITLE2=Fm 2213
TTITLE3=Anybody Out There
TTITLE4=Fallin'
TTITLE5=I'll Be Comin Home To You
TTITLE6=Love Around Here
TTITLE7=Losin Ground
TTITLE8=Something Aint Always Better Than Nothin
TTITLE9=I Can Do This [Joys' Song]
TTITLE10=Can't Say No To Larry Joe
TTITLE11=One Night Too Long
TTITLE12=Who Am I
EXTD=
EXTT0=
EXTT1=
EXTT2=
EXTT3=
EXTT4=
EXTT5=
EXTT6=
EXTT7=
EXTT8=
EXTT9=
EXTT10=
EXTT11=
EXTT12=
PLAYORDER=
